<svg width="143" height="44" viewBox="0 0 143 44" fill="none" xmlns="http://www.w3.org/2000/svg">
<path d="M124.37 43.44C123.597 43.44 122.984 43.28 122.53 42.96C122.077 42.6667 121.757 42.2934 121.57 41.84C121.384 41.4134 121.29 41 121.29 40.6C121.29 39.8534 121.517 39.2534 121.97 38.8C122.45 38.3467 123.037 38.12 123.73 38.12C124.344 38.12 124.797 38.2534 125.09 38.52C125.41 38.7867 125.69 39.0534 125.93 39.32C126.17 39.5867 126.464 39.72 126.81 39.72C127.024 39.72 127.21 39.64 127.37 39.48C127.53 39.32 127.677 39.0667 127.81 38.72L138.17 13.2H139.81L128.81 39.44C128.144 41.0667 127.424 42.1334 126.65 42.64C125.904 43.1734 125.144 43.44 124.37 43.44ZM131.33 30.64L122.69 12.92H129.05L133.89 23.48H134.09L131.33 30.64ZM120.97 13.72V12.52H132.61V13.72H120.97ZM135.01 13.72V12.52H142.01V13.72H135.01Z" fill="black"/>
<path d="M112.646 29.92V0.999984H118.166V29.92H112.646ZM109.406 30.52V29.32H121.166V30.52H109.406ZM109.406 1.55998V0.359985H118.166V1.55998H109.406Z" fill="black"/>
<path d="M98.4556 31C97.229 31 96.149 30.7334 95.2156 30.2C94.2823 29.6667 93.589 29 93.1356 28.2H92.1756L92.9756 22.12C92.9756 24.6534 93.4156 26.5067 94.2956 27.68C95.2023 28.8534 96.309 29.44 97.6156 29.44C98.3356 29.44 98.909 29.2267 99.3356 28.8C99.789 28.3734 100.109 27.6 100.296 26.48C100.509 25.3334 100.616 23.7067 100.616 21.6C100.616 19.44 100.509 17.7867 100.296 16.64C100.109 15.4667 99.789 14.6667 99.3356 14.24C98.8823 13.8134 98.2956 13.6 97.5756 13.6C96.269 13.6 95.1756 14.1867 94.2956 15.36C93.4156 16.5334 92.9756 18.3867 92.9756 20.92L92.1756 14.84H93.1356C93.589 14.04 94.2823 13.3734 95.2156 12.84C96.1756 12.3067 97.269 12.04 98.4956 12.04C99.9623 12.04 101.322 12.44 102.576 13.24C103.856 14.0134 104.882 15.12 105.656 16.56C106.429 17.9734 106.816 19.6267 106.816 21.52C106.816 23.4134 106.416 25.08 105.616 26.52C104.842 27.9334 103.816 29.04 102.536 29.84C101.282 30.6134 99.9223 31 98.4556 31ZM84.4956 43.08V41.88H96.9756V43.08H84.4956ZM87.4556 42.48V13.16H92.9756V42.48H87.4556ZM84.2156 13.72V12.52H92.9756V13.72H84.2156Z" fill="black"/>
<path d="M75.4381 29.92V15.8C75.4381 14.4667 74.8381 13.8 73.6381 13.8C72.8115 13.8 72.0515 14.16 71.3581 14.88C70.6648 15.6 70.1048 16.5867 69.6781 17.84C69.2781 19.0667 69.0781 20.4667 69.0781 22.04L68.2781 15.84H69.2381C69.7448 14.6667 70.4781 13.7467 71.4381 13.08C72.4248 12.3867 73.6648 12.04 75.1581 12.04C76.8915 12.04 78.2915 12.4667 79.3581 13.32C80.4248 14.1467 80.9581 15.1734 80.9581 16.4V29.92H75.4381ZM48.4781 30.52V29.32H59.8381V30.52H48.4781ZM51.7181 29.92V13.16H57.2381V29.92H51.7181ZM60.8781 30.52V29.32H71.6381V30.52H60.8781ZM48.4781 13.72V12.52H57.2381V13.72H48.4781ZM63.5981 29.92V15.8C63.5981 14.4667 62.9981 13.8 61.7981 13.8C60.9715 13.8 60.2115 14.16 59.5181 14.88C58.8248 15.6 58.2648 16.5867 57.8381 17.84C57.4381 19.0667 57.2381 20.4667 57.2381 22.04L56.4381 15.84H57.3981C57.9048 14.6667 58.6381 13.7467 59.5981 13.08C60.5848 12.3867 61.8248 12.04 63.3181 12.04C65.0515 12.04 66.4515 12.4667 67.5181 13.32C68.5848 14.1467 69.1181 15.1734 69.1181 16.4V29.92H63.5981ZM72.7181 30.52V29.32H83.4781V30.52H72.7181Z" fill="black"/>
<path d="M33.3175 31C31.7442 31 30.4508 30.5867 29.4375 29.76C28.4242 28.9334 27.9175 27.84 27.9175 26.48C27.9175 25.2 28.3708 24.0934 29.2775 23.16C30.2108 22.2267 31.5175 21.52 33.1975 21.04C34.8775 20.5334 36.8375 20.28 39.0775 20.28V15.6C39.0775 14.9067 38.8242 14.36 38.3175 13.96C37.8108 13.56 37.1442 13.36 36.3175 13.36C35.6242 13.36 35.0242 13.4934 34.5175 13.76C34.0375 14.0267 33.7975 14.3734 33.7975 14.8C33.7975 15.1467 33.9308 15.4534 34.1975 15.72C34.4908 15.96 34.6375 16.36 34.6375 16.92C34.6375 17.6134 34.3575 18.2267 33.7975 18.76C33.2642 19.2934 32.6108 19.56 31.8375 19.56C31.0642 19.56 30.4242 19.2934 29.9175 18.76C29.4108 18.2267 29.1575 17.5734 29.1575 16.8C29.1575 15.8934 29.5042 15.08 30.1975 14.36C30.8908 13.64 31.8508 13.08 33.0775 12.68C34.3042 12.2534 35.6908 12.04 37.2375 12.04C39.3708 12.04 41.1308 12.4267 42.5175 13.2C43.9042 13.9467 44.5975 14.9334 44.5975 16.16V27.8C44.5975 28.04 44.6775 28.2534 44.8375 28.44C45.0242 28.6267 45.2508 28.72 45.5175 28.72C45.7308 28.72 45.9575 28.6267 46.1975 28.44C46.4642 28.2534 46.8242 27.9067 47.2775 27.4L48.0775 28.32C46.6108 30.1067 44.9442 31 43.0775 31C41.9842 31 41.1175 30.7467 40.4775 30.24C39.8642 29.7334 39.4508 29.0667 39.2375 28.24H39.0775C38.5975 28.9334 37.8508 29.5734 36.8375 30.16C35.8508 30.72 34.6775 31 33.3175 31ZM35.9975 28.8C36.8508 28.8 37.5708 28.4267 38.1575 27.68C38.7708 26.9067 39.0775 25.9067 39.0775 24.68V21.52C37.3708 21.52 36.0508 21.88 35.1175 22.6C34.1842 23.32 33.7175 24.3867 33.7175 25.8C33.7175 26.7067 33.9042 27.44 34.2775 28C34.6775 28.5334 35.2508 28.8 35.9975 28.8Z" fill="black"/>
<path d="M14.48 31.04C12.3733 31.04 10.44 30.6267 8.68 29.8C6.92 28.9733 5.38667 27.8533 4.08 26.44C2.8 25 1.8 23.36 1.08 21.52C0.36 19.6533 0 17.6933 0 15.64C0 13.5867 0.346667 11.6267 1.04 9.76C1.76 7.89333 2.77333 6.22667 4.08 4.76C5.38667 3.29333 6.93333 2.13333 8.72 1.28C10.5067 0.426667 12.48 0 14.64 0C16.0267 0 17.2133 0.2 18.2 0.599999C19.2133 0.973333 20.2533 1.56 21.32 2.36L23.08 0.36H24.08V9.6H22.88C22.5867 8.05333 22.0933 6.66667 21.4 5.44C20.7333 4.18667 19.8267 3.2 18.68 2.48C17.56 1.76 16.16 1.4 14.48 1.4C13.4933 1.4 12.5733 1.58667 11.72 1.96C10.8933 2.33333 10.1733 3.04 9.56 4.08C8.94667 5.09333 8.46667 6.57333 8.12 8.52C7.77333 10.44 7.6 12.96 7.6 16.08C7.6 18.8267 7.73333 21.0933 8 22.88C8.29333 24.64 8.73333 26.0133 9.32 27C9.90667 27.9867 10.6267 28.68 11.48 29.08C12.36 29.4533 13.3733 29.64 14.52 29.64C16.3333 29.64 17.84 29.28 19.04 28.56C20.2667 27.84 21.2267 26.8933 21.92 25.72C22.64 24.52 23.1467 23.2267 23.44 21.84H24.64V30.52H23.44L21.68 28.68C20.5333 29.5067 19.36 30.1067 18.16 30.48C16.9867 30.8533 15.76 31.04 14.48 31.04Z" fill="black"/>
</svg>
