<svg width="26" height="26" viewBox="0 0 26 26" fill="none" xmlns="http://www.w3.org/2000/svg">
<mask id="mask0_4_2045" style="mask-type:luminance" maskUnits="userSpaceOnUse" x="0" y="0" width="26" height="26">
<path d="M26 0.481445H0V25.5185H26V0.481445Z" fill="white"/>
</mask>
<g mask="url(#mask0_4_2045)">
<path d="M18.6044 4.08576C19.1879 4.0841 19.7508 4.30044 20.183 4.69236C20.6152 5.08427 20.8854 5.62349 20.9406 6.20428L22.3273 20.0709C22.36 20.3973 22.3239 20.7269 22.2214 21.0385C22.1188 21.3501 21.9521 21.6367 21.732 21.8799C21.5119 22.123 21.2432 22.3173 20.9434 22.4503C20.6435 22.5832 20.3191 22.6518 19.9911 22.6517H5.84133C5.51333 22.6518 5.18893 22.5832 4.88908 22.4503C4.58922 22.3173 4.32056 22.123 4.10044 21.8799C3.88031 21.6367 3.71361 21.3501 3.61108 21.0385C3.50855 20.7269 3.47248 20.3973 3.50519 20.0709L4.89185 6.20428C4.94707 5.62349 5.21726 5.08427 5.64943 4.69236C6.0816 4.30044 6.64459 4.0841 7.228 4.08576H18.6044ZM18.6044 2.6991H7.228C6.30189 2.69904 5.4088 3.0431 4.72211 3.66448C4.03541 4.28587 3.60411 5.14026 3.51193 6.06176L2.12526 19.9284C2.07347 20.4475 2.13102 20.9717 2.29419 21.4672C2.45737 21.9627 2.72256 22.4186 3.07266 22.8053C3.42276 23.1921 3.85002 23.5012 4.32688 23.7127C4.80375 23.9243 5.31965 24.0336 5.84133 24.0335H19.9873C20.5089 24.0336 21.0248 23.9243 21.5016 23.7127C21.9784 23.5012 22.4056 23.1921 22.7556 22.8053C23.1057 22.4185 23.3708 21.9627 23.5338 21.4672C23.6969 20.9717 23.7543 20.4475 23.7024 19.9284L22.3167 6.06176C22.2246 5.14092 21.7938 4.28707 21.1079 3.66578C20.422 3.04448 19.5299 2.69999 18.6044 2.6991Z" fill="black" stroke="black" stroke-width="0.288889"/>
<path d="M13.0664 10.4298C12.1757 10.4288 11.3217 10.0745 10.6918 9.44464C10.062 8.81478 9.70768 7.9608 9.70667 7.07004C9.70667 6.97899 9.7246 6.88883 9.75944 6.80472C9.79429 6.7206 9.84536 6.64416 9.90974 6.57978C9.97412 6.5154 10.0506 6.46433 10.1347 6.42949C10.2188 6.39464 10.3089 6.37671 10.4 6.37671C10.491 6.37671 10.5812 6.39464 10.6653 6.42949C10.7494 6.46433 10.8259 6.5154 10.8903 6.57978C10.9546 6.64416 11.0057 6.7206 11.0406 6.80472C11.0754 6.88883 11.0933 6.97899 11.0933 7.07004C11.0933 7.5936 11.3013 8.09571 11.6715 8.46592C12.0417 8.83613 12.5438 9.04412 13.0674 9.04412C13.591 9.04412 14.0931 8.83613 14.4633 8.46592C14.8335 8.09571 15.0415 7.5936 15.0415 7.07004C15.0415 6.88616 15.1145 6.70981 15.2446 6.57978C15.3746 6.44976 15.5509 6.37671 15.7348 6.37671C15.9187 6.37671 16.095 6.44976 16.2251 6.57978C16.3551 6.70981 16.4281 6.88616 16.4281 7.07004C16.4271 7.9608 16.0728 8.81478 15.443 9.44464C14.8131 10.0745 13.9591 10.4288 13.0684 10.4298" fill="black"/>
<path d="M13.0664 10.4298C12.1757 10.4288 11.3217 10.0745 10.6918 9.44464C10.062 8.81478 9.70768 7.9608 9.70667 7.07004C9.70667 6.97899 9.7246 6.88883 9.75944 6.80472C9.79429 6.7206 9.84536 6.64416 9.90974 6.57978C9.97412 6.5154 10.0506 6.46433 10.1347 6.42949C10.2188 6.39464 10.3089 6.37671 10.4 6.37671C10.491 6.37671 10.5812 6.39464 10.6653 6.42949C10.7494 6.46433 10.8259 6.5154 10.8903 6.57978C10.9546 6.64416 11.0057 6.7206 11.0406 6.80472C11.0754 6.88883 11.0933 6.97899 11.0933 7.07004C11.0933 7.5936 11.3013 8.09571 11.6715 8.46592C12.0417 8.83613 12.5438 9.04412 13.0674 9.04412C13.591 9.04412 14.0931 8.83613 14.4633 8.46592C14.8335 8.09571 15.0415 7.5936 15.0415 7.07004C15.0415 6.88616 15.1145 6.70981 15.2446 6.57978C15.3746 6.44976 15.5509 6.37671 15.7348 6.37671C15.9187 6.37671 16.095 6.44976 16.2251 6.57978C16.3551 6.70981 16.4281 6.88616 16.4281 7.07004C16.4271 7.9608 16.0728 8.81478 15.443 9.44464C14.8131 10.0745 13.9591 10.4288 13.0684 10.4298" stroke="black" stroke-width="0.288889"/>
</g>
</svg>
