<svg width="26" height="26" viewBox="0 0 26 26" fill="none" xmlns="http://www.w3.org/2000/svg">
<mask id="mask0_4_2055" style="mask-type:luminance" maskUnits="userSpaceOnUse" x="0" y="0" width="26" height="26">
<path d="M26 0H0V26H26V0Z" fill="white"/>
</mask>
<g mask="url(#mask0_4_2055)">
<path d="M16.338 25.168H8.68797C7.60735 25.1692 6.54753 24.8711 5.62606 24.3066C4.7046 23.7421 3.95753 22.9334 3.46773 21.9701C2.97793 21.0069 2.76455 19.9268 2.85126 18.8497C2.93797 17.7726 3.32139 16.7405 3.95897 15.868L4.18397 15.559C5.12169 14.2751 6.34215 13.224 7.75097 12.487C8.49397 12.101 9.41097 12.287 10.561 13.044C11.1395 13.4263 11.8176 13.6301 12.511 13.6301C13.2044 13.6301 13.8825 13.4263 14.461 13.044C15.611 12.282 16.53 12.1 17.271 12.487C18.6803 13.2245 19.9008 14.2767 20.838 15.562L21.064 15.871C21.7002 16.7434 22.0825 17.7748 22.1687 18.8511C22.2549 19.9273 22.0415 21.0064 21.5523 21.9689C21.063 22.9314 20.3169 23.7397 19.3966 24.3044C18.4763 24.869 17.4177 25.1679 16.338 25.168ZM8.56897 14.068H8.54897C7.38934 14.6791 6.38475 15.5472 5.61197 16.606L5.38897 16.915C4.94519 17.5241 4.67859 18.2441 4.61866 18.9953C4.55874 19.7465 4.70782 20.4996 5.04943 21.1713C5.39103 21.843 5.91183 22.4071 6.55418 22.8012C7.19653 23.1952 7.93538 23.4039 8.68897 23.404H16.338C17.0916 23.4039 17.8304 23.1952 18.4728 22.8012C19.1151 22.4071 19.6359 21.843 19.9775 21.1713C20.3191 20.4996 20.4682 19.7465 20.4083 18.9953C20.3483 18.2441 20.0817 17.5241 19.638 16.915L19.413 16.606C18.6368 15.5415 17.6256 14.6703 16.458 14.06C16.0824 14.1203 15.7298 14.2802 15.437 14.523C14.5698 15.0985 13.5522 15.4054 12.5115 15.4054C11.4707 15.4054 10.4531 15.0985 9.58597 14.523C9.2924 14.2833 8.94037 14.1259 8.56597 14.067" fill="black"/>
<path d="M12.512 12.285C11.4764 12.285 10.4641 11.9779 9.60304 11.4026C8.74198 10.8272 8.07087 10.0095 7.67457 9.05272C7.27827 8.09597 7.17458 7.04318 7.37661 6.0275C7.57864 5.01181 8.07732 4.07885 8.80959 3.34658C9.54186 2.61431 10.4748 2.11563 11.4905 1.9136C12.5062 1.71157 13.559 1.81526 14.5157 2.21156C15.4725 2.60786 16.2902 3.27897 16.8656 4.14002C17.4409 5.00108 17.748 6.01341 17.748 7.04899C17.7462 8.4371 17.1939 9.76782 16.2124 10.7494C15.2308 11.7309 13.9001 12.2831 12.512 12.285ZM12.512 3.57799C11.8256 3.57839 11.1547 3.78229 10.5842 4.16393C10.0136 4.54557 9.56905 5.0878 9.30664 5.72208C9.04424 6.35636 8.97579 7.0542 9.10994 7.72737C9.2441 8.40055 9.57484 9.01884 10.0603 9.50406C10.5459 9.98929 11.1643 10.3197 11.8376 10.4534C12.5108 10.5872 13.2086 10.5184 13.8428 10.2556C14.4769 9.99282 15.0189 9.54793 15.4002 8.97717C15.7815 8.40641 15.985 7.7354 15.985 7.04899C15.9837 6.12883 15.6176 5.24674 14.9669 4.59608C14.3163 3.94543 13.4342 3.57931 12.514 3.57799" fill="black"/>
</g>
</svg>
