<svg width="26" height="26" viewBox="0 0 26 26" fill="none" xmlns="http://www.w3.org/2000/svg">
<mask id="mask0_4_2037" style="mask-type:luminance" maskUnits="userSpaceOnUse" x="0" y="0" width="26" height="26">
<path d="M26 0H0V26H26V0Z" fill="white"/>
</mask>
<g mask="url(#mask0_4_2037)">
<path d="M12.462 22.136C10.5486 22.136 8.67826 21.5686 7.08738 20.5056C5.4965 19.4426 4.25656 17.9317 3.52436 16.164C2.79216 14.3964 2.60058 12.4512 2.97385 10.5747C3.34712 8.69809 4.26848 6.97435 5.62142 5.62142C6.97435 4.26848 8.69809 3.34712 10.5747 2.97385C12.4512 2.60058 14.3964 2.79216 16.164 3.52436C17.9317 4.25656 19.4426 5.4965 20.5056 7.08738C21.5686 8.67826 22.136 10.5486 22.136 12.462C22.1331 15.0268 21.1129 17.4857 19.2993 19.2993C17.4857 21.1129 15.0268 22.1331 12.462 22.136ZM12.462 4.40097C10.8677 4.40117 9.30928 4.8741 7.98379 5.75998C6.6583 6.64585 5.62525 7.90488 5.01529 9.37785C4.40532 10.8508 4.24583 12.4716 4.55698 14.0352C4.86813 15.5988 5.63594 17.0351 6.76333 18.1623C7.89072 19.2896 9.32706 20.0572 10.8907 20.3682C12.4544 20.6791 14.0751 20.5194 15.548 19.9093C17.0209 19.2991 18.2798 18.2659 19.1655 16.9403C20.0512 15.6147 20.524 14.0562 20.524 12.462C20.5216 10.3246 19.6714 8.2755 18.16 6.76426C16.6485 5.25302 14.5993 4.40309 12.462 4.40097Z" fill="black" stroke="black" stroke-width="0.3"/>
<path d="M22.405 23.211C22.2991 23.2113 22.1942 23.1907 22.0964 23.1502C21.9985 23.1096 21.9097 23.0501 21.835 22.975L18.61 19.75C18.5304 19.6763 18.4665 19.5873 18.4221 19.4884C18.3777 19.3894 18.3537 19.2825 18.3516 19.174C18.3495 19.0656 18.3693 18.9578 18.4098 18.8572C18.4504 18.7566 18.5108 18.6652 18.5875 18.5885C18.6642 18.5118 18.7556 18.4514 18.8562 18.4108C18.9568 18.3703 19.0646 18.3505 19.1731 18.3526C19.2815 18.3547 19.3884 18.3786 19.4874 18.423C19.5864 18.4675 19.6754 18.5314 19.749 18.611L22.974 21.835C23.0868 21.9477 23.1636 22.0914 23.1947 22.2477C23.2258 22.4041 23.2098 22.5662 23.1488 22.7135C23.0878 22.8608 22.9845 22.9866 22.8519 23.0752C22.7193 23.1638 22.5645 23.211 22.405 23.211Z" fill="black" stroke="black" stroke-width="0.3"/>
</g>
</svg>
